<mxfile host="65bd71144e">
    <diagram id="RzdB1_ECVK01WcsdOi-J" name="sodo">
        <mxGraphModel dx="1108" dy="787" grid="1" gridSize="10" guides="1" tooltips="1" connect="1" arrows="1" fold="1" page="1" pageScale="1" pageWidth="1169" pageHeight="827" background="none" math="0" shadow="0">
            <root>
                <mxCell id="0"/>
                <mxCell id="1" parent="0"/>
                <mxCell id="772" value="&lt;u&gt;勤務集約&lt;/u&gt;" style="rounded=0;whiteSpace=wrap;html=1;verticalAlign=top;" parent="1" vertex="1">
                    <mxGeometry x="160" y="870" width="280" height="180" as="geometry"/>
                </mxCell>
                <mxCell id="771" value="&lt;u&gt;作業台帳集約&lt;/u&gt;" style="rounded=0;whiteSpace=wrap;html=1;verticalAlign=top;" parent="1" vertex="1">
                    <mxGeometry x="455" y="870" width="130" height="110" as="geometry"/>
                </mxCell>
                <mxCell id="240" value="&lt;u&gt;工数入力システム&lt;/u&gt;" style="rounded=0;whiteSpace=wrap;html=1;verticalAlign=top;" parent="1" vertex="1">
                    <mxGeometry x="930" y="300" width="220" height="450" as="geometry"/>
                </mxCell>
                <mxCell id="597" style="edgeStyle=none;html=1;endArrow=none;endFill=0;" parent="1" source="238" target="596" edge="1">
                    <mxGeometry relative="1" as="geometry"/>
                </mxCell>
                <mxCell id="622" value="" style="rounded=0;whiteSpace=wrap;html=1;fontSize=16;" parent="1" vertex="1">
                    <mxGeometry x="630" y="868" width="460" height="222" as="geometry"/>
                </mxCell>
                <mxCell id="363" value="&lt;u&gt;社員集約&lt;/u&gt;" style="rounded=0;whiteSpace=wrap;html=1;verticalAlign=top;" parent="1" vertex="1">
                    <mxGeometry x="10" y="870" width="130" height="100" as="geometry"/>
                </mxCell>
                <mxCell id="164" style="edgeStyle=none;html=1;fontColor=#FF0000;endArrow=none;endFill=0;dashed=1;startArrow=none;" parent="1" source="121" target="158" edge="1">
                    <mxGeometry relative="1" as="geometry"/>
                </mxCell>
                <mxCell id="121" value="" style="rounded=0;whiteSpace=wrap;html=1;dashed=1;fillColor=none;" parent="1" vertex="1">
                    <mxGeometry x="101.24" y="80" width="328.76" height="380" as="geometry"/>
                </mxCell>
                <mxCell id="2" value="システム関連図" style="text;html=1;strokeColor=none;fillColor=none;align=center;verticalAlign=middle;whiteSpace=wrap;rounded=0;" parent="1" vertex="1">
                    <mxGeometry x="40" y="20" width="100" height="20" as="geometry"/>
                </mxCell>
                <mxCell id="611" style="edgeStyle=none;html=1;startArrow=none;startFill=0;endArrow=classic;endFill=1;" parent="1" source="5" target="610" edge="1">
                    <mxGeometry relative="1" as="geometry"/>
                </mxCell>
                <mxCell id="5" value="工数入力エクセル" style="rounded=1;whiteSpace=wrap;html=1;" parent="1" vertex="1">
                    <mxGeometry x="120.62" y="200" width="130" height="40" as="geometry"/>
                </mxCell>
                <mxCell id="21" value="ユースケース図" style="text;html=1;strokeColor=none;fillColor=none;align=center;verticalAlign=middle;whiteSpace=wrap;rounded=0;" parent="1" vertex="1">
                    <mxGeometry x="740" y="20" width="100" height="20" as="geometry"/>
                </mxCell>
                <mxCell id="33" value="ドメインモデル図" style="text;html=1;strokeColor=none;fillColor=none;align=center;verticalAlign=middle;whiteSpace=wrap;rounded=0;" parent="1" vertex="1">
                    <mxGeometry x="40" y="840" width="110" height="20" as="geometry"/>
                </mxCell>
                <mxCell id="123" style="edgeStyle=none;html=1;endArrow=none;endFill=0;" parent="1" source="122" target="121" edge="1">
                    <mxGeometry relative="1" as="geometry"/>
                </mxCell>
                <mxCell id="122" value="今回開発する範囲" style="text;html=1;strokeColor=none;fillColor=none;align=center;verticalAlign=middle;whiteSpace=wrap;rounded=0;" parent="1" vertex="1">
                    <mxGeometry x="320" y="15" width="140" height="30" as="geometry"/>
                </mxCell>
                <mxCell id="607" style="edgeStyle=none;html=1;startArrow=none;startFill=0;endArrow=none;endFill=0;" parent="1" source="238" target="259" edge="1">
                    <mxGeometry relative="1" as="geometry">
                        <mxPoint x="1026.1764705882351" y="680" as="targetPoint"/>
                    </mxGeometry>
                </mxCell>
                <mxCell id="674" style="edgeStyle=none;html=1;endArrow=none;endFill=0;" parent="1" source="713" target="673" edge="1">
                    <mxGeometry relative="1" as="geometry"/>
                </mxCell>
                <mxCell id="676" style="edgeStyle=none;html=1;endArrow=none;endFill=0;" parent="1" source="238" target="675" edge="1">
                    <mxGeometry relative="1" as="geometry"/>
                </mxCell>
                <mxCell id="714" style="edgeStyle=none;html=1;endArrow=none;endFill=0;" parent="1" source="238" target="588" edge="1">
                    <mxGeometry relative="1" as="geometry"/>
                </mxCell>
                <mxCell id="720" style="edgeStyle=none;html=1;endArrow=none;endFill=0;" parent="1" source="238" target="719" edge="1">
                    <mxGeometry relative="1" as="geometry"/>
                </mxCell>
                <mxCell id="795" style="edgeStyle=none;html=1;endArrow=none;endFill=0;" parent="1" source="238" target="794" edge="1">
                    <mxGeometry relative="1" as="geometry"/>
                </mxCell>
                <mxCell id="801" style="edgeStyle=none;html=1;endArrow=none;endFill=0;" edge="1" parent="1" source="238" target="800">
                    <mxGeometry relative="1" as="geometry"/>
                </mxCell>
                <mxCell id="238" value="工作部員" style="shape=umlActor;verticalLabelPosition=bottom;verticalAlign=top;html=1;outlineConnect=0;" parent="1" vertex="1">
                    <mxGeometry x="790" y="330" width="30" height="60" as="geometry"/>
                </mxCell>
                <mxCell id="585" style="edgeStyle=none;html=1;endArrow=none;endFill=0;" parent="1" source="249" target="5" edge="1">
                    <mxGeometry relative="1" as="geometry"/>
                </mxCell>
                <mxCell id="249" value="従業員" style="shape=umlActor;verticalLabelPosition=bottom;verticalAlign=top;html=1;outlineConnect=0;" parent="1" vertex="1">
                    <mxGeometry x="20.62" y="190" width="30" height="60" as="geometry"/>
                </mxCell>
                <mxCell id="259" value="履歴を呼び出す" style="rounded=1;whiteSpace=wrap;html=1;" parent="1" vertex="1">
                    <mxGeometry x="950" y="610" width="180" height="40" as="geometry"/>
                </mxCell>
                <mxCell id="372" value="オブジェクト図" style="text;html=1;strokeColor=none;fillColor=none;align=center;verticalAlign=middle;whiteSpace=wrap;rounded=0;" parent="1" vertex="1">
                    <mxGeometry x="520" y="840" width="100" height="20" as="geometry"/>
                </mxCell>
                <mxCell id="725" style="edgeStyle=none;html=1;endArrow=none;endFill=0;" parent="1" source="465" target="724" edge="1">
                    <mxGeometry relative="1" as="geometry"/>
                </mxCell>
                <mxCell id="757" style="edgeStyle=none;html=1;endArrow=none;endFill=0;" parent="1" source="465" target="756" edge="1">
                    <mxGeometry relative="1" as="geometry"/>
                </mxCell>
                <mxCell id="465" value="(勤務)&lt;br&gt;社員NO: 9999&lt;br&gt;日付: 2023/4/4&lt;br&gt;始業時間: 8:00&lt;br&gt;勤務区分:&lt;br&gt;勤務時所属: 営業部" style="rounded=1;whiteSpace=wrap;html=1;verticalAlign=middle;align=center;fillColor=#60a917;strokeColor=#2D7600;fontColor=#ffffff;" parent="1" vertex="1">
                    <mxGeometry x="770" y="882" width="140" height="92" as="geometry"/>
                </mxCell>
                <mxCell id="513" value="&lt;span style=&quot;&quot;&gt;&lt;u&gt;S社員&lt;br&gt;&lt;/u&gt;&lt;/span&gt;(&lt;span style=&quot;text-align: left;&quot;&gt;Employee&lt;/span&gt;&lt;span&gt;)&lt;/span&gt;&lt;br style=&quot;&quot;&gt;&lt;span style=&quot;&quot;&gt;社員NO&lt;/span&gt;" style="rounded=1;whiteSpace=wrap;html=1;verticalAlign=middle;align=center;fontColor=default;" parent="1" vertex="1">
                    <mxGeometry x="20.620000000000005" y="898" width="111.24" height="60" as="geometry"/>
                </mxCell>
                <mxCell id="158" value="&lt;span&gt;解決したい課題&lt;br&gt;・工数入力/勤務表/残業実績表 複数の管理業を1つの入力で済ませたい&lt;/span&gt;&lt;br&gt;&lt;p style=&quot;margin-top: 0pt ; margin-bottom: 0pt ; margin-left: 0in ; direction: ltr ; unicode-bidi: embed ; word-break: normal&quot;&gt;・勤務表/残業実績は月ごとに作成を人手から自動化したい(次フェーズ)&lt;/p&gt;&lt;p style=&quot;margin-top: 0pt ; margin-bottom: 0pt ; margin-left: 0in ; direction: ltr ; unicode-bidi: embed ; word-break: normal&quot;&gt;・勤務表検証システムの元データを作成する&lt;/p&gt;" style="rounded=0;whiteSpace=wrap;html=1;align=left;verticalAlign=top;fontSize=13;fontColor=default;" parent="1" vertex="1">
                    <mxGeometry x="20.620000000000005" y="510" width="441.86" height="210" as="geometry"/>
                </mxCell>
                <mxCell id="537" value="休日(勤務)区分は&lt;br&gt;&lt;div&gt;&lt;ul&gt;&lt;li&gt;有休&lt;/li&gt;&lt;li&gt;AM有&lt;/li&gt;&lt;li&gt;PM有&lt;/li&gt;&lt;li&gt;振休&lt;/li&gt;&lt;li&gt;振出&lt;/li&gt;&lt;li&gt;休出&lt;/li&gt;&lt;li&gt;欠勤&lt;/li&gt;&lt;li&gt;遅刻&lt;/li&gt;&lt;li&gt;早退&lt;/li&gt;&lt;li&gt;特休有給&lt;/li&gt;&lt;li&gt;特休無給&lt;/li&gt;&lt;/ul&gt;&lt;/div&gt;&lt;div&gt;&lt;br&gt;&lt;/div&gt;" style="rounded=0;whiteSpace=wrap;html=1;align=left;verticalAlign=top;fontSize=13;spacing=2;" parent="1" vertex="1">
                    <mxGeometry x="10.000000000000005" y="1110" width="110" height="280" as="geometry"/>
                </mxCell>
                <mxCell id="580" style="edgeStyle=none;html=1;" parent="1" source="579" target="5" edge="1">
                    <mxGeometry relative="1" as="geometry"/>
                </mxCell>
                <mxCell id="579" value="項目分類表エクセル" style="rounded=1;whiteSpace=wrap;html=1;" parent="1" vertex="1">
                    <mxGeometry x="120.62" y="90" width="130" height="40" as="geometry"/>
                </mxCell>
                <mxCell id="582" style="edgeStyle=none;html=1;endArrow=none;endFill=0;" parent="1" source="581" target="579" edge="1">
                    <mxGeometry relative="1" as="geometry"/>
                </mxCell>
                <mxCell id="581" value="各部管理者" style="shape=umlActor;verticalLabelPosition=bottom;verticalAlign=top;html=1;outlineConnect=0;" parent="1" vertex="1">
                    <mxGeometry x="20.000000000000004" y="80" width="30" height="60" as="geometry"/>
                </mxCell>
                <mxCell id="588" value="入力漏れを確認する" style="rounded=1;whiteSpace=wrap;html=1;" parent="1" vertex="1">
                    <mxGeometry x="950" y="550" width="180" height="40" as="geometry"/>
                </mxCell>
                <mxCell id="722" style="edgeStyle=none;html=1;endArrow=none;endFill=0;" parent="1" source="592" target="721" edge="1">
                    <mxGeometry relative="1" as="geometry"/>
                </mxCell>
                <mxCell id="723" style="edgeStyle=none;html=1;endArrow=none;endFill=0;" parent="1" source="592" target="465" edge="1">
                    <mxGeometry relative="1" as="geometry"/>
                </mxCell>
                <mxCell id="592" value="(S社員)&lt;br&gt;社員NO: 9999&lt;br&gt;氏名: 田中　一郎&lt;br&gt;部署ID: 1" style="rounded=1;whiteSpace=wrap;html=1;verticalAlign=middle;align=center;fillColor=#60a917;strokeColor=#2D7600;fontColor=#ffffff;" parent="1" vertex="1">
                    <mxGeometry x="640" y="880" width="110" height="62" as="geometry"/>
                </mxCell>
                <mxCell id="596" value="入力をクリアする" style="rounded=1;whiteSpace=wrap;html=1;" parent="1" vertex="1">
                    <mxGeometry x="950" y="670" width="180" height="40" as="geometry"/>
                </mxCell>
                <mxCell id="703" style="edgeStyle=none;html=1;endArrow=classic;endFill=1;" parent="1" source="610" target="701" edge="1">
                    <mxGeometry relative="1" as="geometry"/>
                </mxCell>
                <mxCell id="704" style="edgeStyle=none;html=1;endArrow=classic;endFill=1;" parent="1" source="610" target="702" edge="1">
                    <mxGeometry relative="1" as="geometry"/>
                </mxCell>
                <mxCell id="706" style="edgeStyle=none;html=1;endArrow=classic;endFill=1;" parent="1" source="610" target="705" edge="1">
                    <mxGeometry relative="1" as="geometry"/>
                </mxCell>
                <mxCell id="610" value="工数入力アドイン" style="rounded=1;whiteSpace=wrap;html=1;" parent="1" vertex="1">
                    <mxGeometry x="120.62" y="280" width="130" height="40" as="geometry"/>
                </mxCell>
                <mxCell id="672" style="edgeStyle=none;html=1;startArrow=none;startFill=0;endArrow=none;endFill=0;dashed=1;" parent="1" source="692" target="537" edge="1">
                    <mxGeometry relative="1" as="geometry">
                        <mxPoint x="360" y="1169.6265229615744" as="targetPoint"/>
                        <mxPoint x="219.00349328214952" y="1144.5" as="sourcePoint"/>
                    </mxGeometry>
                </mxCell>
                <mxCell id="673" value="項目分類表を編集する" style="rounded=1;whiteSpace=wrap;html=1;" parent="1" vertex="1">
                    <mxGeometry x="950" y="90" width="180" height="40" as="geometry"/>
                </mxCell>
                <mxCell id="675" value="工数を記録する" style="rounded=1;whiteSpace=wrap;html=1;" parent="1" vertex="1">
                    <mxGeometry x="950" y="490" width="180" height="40" as="geometry"/>
                </mxCell>
                <mxCell id="774" style="edgeStyle=none;html=1;startArrow=none;startFill=0;endArrow=classic;endFill=1;" parent="1" source="692" target="773" edge="1">
                    <mxGeometry relative="1" as="geometry"/>
                </mxCell>
                <mxCell id="778" value="1" style="edgeLabel;html=1;align=center;verticalAlign=middle;resizable=0;points=[];" parent="774" vertex="1" connectable="0">
                    <mxGeometry x="-0.7416" relative="1" as="geometry">
                        <mxPoint as="offset"/>
                    </mxGeometry>
                </mxCell>
                <mxCell id="779" value="0..n" style="edgeLabel;html=1;align=center;verticalAlign=middle;resizable=0;points=[];" parent="774" vertex="1" connectable="0">
                    <mxGeometry x="0.4366" relative="1" as="geometry">
                        <mxPoint y="-12" as="offset"/>
                    </mxGeometry>
                </mxCell>
                <mxCell id="775" style="edgeStyle=none;html=1;startArrow=none;startFill=0;endArrow=classic;endFill=1;" parent="1" source="692" target="513" edge="1">
                    <mxGeometry relative="1" as="geometry"/>
                </mxCell>
                <mxCell id="776" value="1" style="edgeLabel;html=1;align=center;verticalAlign=middle;resizable=0;points=[];" parent="775" vertex="1" connectable="0">
                    <mxGeometry x="0.4265" relative="1" as="geometry">
                        <mxPoint as="offset"/>
                    </mxGeometry>
                </mxCell>
                <mxCell id="777" value="0..n" style="edgeLabel;html=1;align=center;verticalAlign=middle;resizable=0;points=[];" parent="775" vertex="1" connectable="0">
                    <mxGeometry x="-0.6963" relative="1" as="geometry">
                        <mxPoint x="-9" y="13" as="offset"/>
                    </mxGeometry>
                </mxCell>
                <mxCell id="781" style="edgeStyle=none;html=1;dashed=1;startArrow=none;startFill=0;endArrow=none;endFill=0;" parent="1" source="692" target="780" edge="1">
                    <mxGeometry relative="1" as="geometry"/>
                </mxCell>
                <mxCell id="692" value="&lt;span style=&quot;color: rgb(255 , 255 , 255)&quot;&gt;&lt;u&gt;勤務&lt;br&gt;&lt;/u&gt;&lt;/span&gt;(&lt;span style=&quot;text-align: start;&quot;&gt;Attendance&lt;/span&gt;&lt;span&gt;)&lt;/span&gt;&lt;br style=&quot;color: rgb(255 , 255 , 255)&quot;&gt;社員NO&lt;br&gt;日付&lt;br&gt;始業時間&lt;br&gt;休日(勤務)区分&lt;br&gt;勤務時所属" style="rounded=1;whiteSpace=wrap;html=1;verticalAlign=middle;align=center;" parent="1" vertex="1">
                    <mxGeometry x="175.31" y="898" width="99.38" height="121.5" as="geometry"/>
                </mxCell>
                <mxCell id="701" value="勤務表エクセル" style="rounded=1;whiteSpace=wrap;html=1;" parent="1" vertex="1">
                    <mxGeometry x="280" y="250" width="130" height="40" as="geometry"/>
                </mxCell>
                <mxCell id="702" value="残業実績エクセル" style="rounded=1;whiteSpace=wrap;html=1;" parent="1" vertex="1">
                    <mxGeometry x="280" y="320" width="130" height="40" as="geometry"/>
                </mxCell>
                <mxCell id="705" value="データベース" style="rounded=1;whiteSpace=wrap;html=1;" parent="1" vertex="1">
                    <mxGeometry x="280" y="394" width="130" height="40" as="geometry"/>
                </mxCell>
                <mxCell id="708" style="edgeStyle=none;html=1;endArrow=classic;endFill=1;" parent="1" source="707" target="701" edge="1">
                    <mxGeometry relative="1" as="geometry"/>
                </mxCell>
                <mxCell id="709" style="edgeStyle=none;html=1;endArrow=classic;endFill=1;dashed=1;" parent="1" source="707" target="705" edge="1">
                    <mxGeometry relative="1" as="geometry"/>
                </mxCell>
                <mxCell id="710" value="将来的にエクセルから&lt;br&gt;データベースへ切り替える" style="edgeLabel;html=1;align=center;verticalAlign=middle;resizable=0;points=[];" parent="709" vertex="1" connectable="0">
                    <mxGeometry x="-0.4739" y="1" relative="1" as="geometry">
                        <mxPoint x="37" y="2" as="offset"/>
                    </mxGeometry>
                </mxCell>
                <mxCell id="707" value="勤務表検証システム" style="rounded=1;whiteSpace=wrap;html=1;" parent="1" vertex="1">
                    <mxGeometry x="470" y="250" width="130" height="40" as="geometry"/>
                </mxCell>
                <mxCell id="717" style="edgeStyle=none;html=1;endArrow=none;endFill=0;" parent="1" source="713" target="715" edge="1">
                    <mxGeometry relative="1" as="geometry"/>
                </mxCell>
                <mxCell id="718" style="edgeStyle=none;html=1;endArrow=none;endFill=0;" parent="1" source="713" target="716" edge="1">
                    <mxGeometry relative="1" as="geometry"/>
                </mxCell>
                <mxCell id="713" value="各部管理者" style="shape=umlActor;verticalLabelPosition=bottom;verticalAlign=top;html=1;outlineConnect=0;" parent="1" vertex="1">
                    <mxGeometry x="790" y="80" width="30" height="60" as="geometry"/>
                </mxCell>
                <mxCell id="715" value="月末勤務表を確認する" style="rounded=1;whiteSpace=wrap;html=1;" parent="1" vertex="1">
                    <mxGeometry x="950" y="150" width="180" height="40" as="geometry"/>
                </mxCell>
                <mxCell id="716" value="規定のフォルダに勤務表をコピーする" style="rounded=1;whiteSpace=wrap;html=1;" parent="1" vertex="1">
                    <mxGeometry x="950" y="210" width="180" height="40" as="geometry"/>
                </mxCell>
                <mxCell id="719" value="分類を入力規則を設定する" style="rounded=1;whiteSpace=wrap;html=1;" parent="1" vertex="1">
                    <mxGeometry x="950" y="380" width="180" height="40" as="geometry"/>
                </mxCell>
                <mxCell id="721" value="(S部署)&lt;br&gt;部署ID: 1&lt;br&gt;部署: 営業部" style="rounded=1;whiteSpace=wrap;html=1;verticalAlign=middle;align=center;fillColor=#60a917;strokeColor=#2D7600;fontColor=#ffffff;" parent="1" vertex="1">
                    <mxGeometry x="650" y="961" width="90" height="51" as="geometry"/>
                </mxCell>
                <mxCell id="724" value="(実績工数)&lt;br&gt;作業NO: 99N-1234&lt;br&gt;DET:&lt;br&gt;実績工程: CAD&amp;nbsp;&lt;br&gt;大分類: A&lt;br&gt;中分類: A-1&lt;br&gt;工数: 3.33&lt;br&gt;特記事項: A-1見積" style="rounded=1;whiteSpace=wrap;html=1;verticalAlign=middle;align=center;fillColor=#60a917;strokeColor=#2D7600;fontColor=#ffffff;" parent="1" vertex="1">
                    <mxGeometry x="940" y="882" width="140" height="121" as="geometry"/>
                </mxCell>
                <mxCell id="746" value="" style="rounded=0;whiteSpace=wrap;html=1;fontSize=16;" parent="1" vertex="1">
                    <mxGeometry x="630" y="1100" width="290" height="162" as="geometry"/>
                </mxCell>
                <mxCell id="748" value="(勤務)&lt;br&gt;社員NO: 9999&lt;br&gt;日付: 2023/4/4&lt;br&gt;始業時間: 8:00&lt;br&gt;勤務区分: 有給&lt;br&gt;勤務時所属: 営業部" style="rounded=1;whiteSpace=wrap;html=1;verticalAlign=middle;align=center;fillColor=#60a917;strokeColor=#2D7600;fontColor=#ffffff;" parent="1" vertex="1">
                    <mxGeometry x="770" y="1114" width="140" height="92" as="geometry"/>
                </mxCell>
                <mxCell id="749" style="edgeStyle=none;html=1;endArrow=none;endFill=0;" parent="1" source="751" target="752" edge="1">
                    <mxGeometry relative="1" as="geometry"/>
                </mxCell>
                <mxCell id="750" style="edgeStyle=none;html=1;endArrow=none;endFill=0;" parent="1" source="751" target="748" edge="1">
                    <mxGeometry relative="1" as="geometry"/>
                </mxCell>
                <mxCell id="751" value="(S社員)&lt;br&gt;社員NO: 9999&lt;br&gt;氏名: 田中　一郎&lt;br&gt;部署ID: 1" style="rounded=1;whiteSpace=wrap;html=1;verticalAlign=middle;align=center;fillColor=#60a917;strokeColor=#2D7600;fontColor=#ffffff;" parent="1" vertex="1">
                    <mxGeometry x="640" y="1112" width="110" height="62" as="geometry"/>
                </mxCell>
                <mxCell id="752" value="(S部署)&lt;br&gt;部署ID: 1&lt;br&gt;部署: 営業部" style="rounded=1;whiteSpace=wrap;html=1;verticalAlign=middle;align=center;fillColor=#60a917;strokeColor=#2D7600;fontColor=#ffffff;" parent="1" vertex="1">
                    <mxGeometry x="650" y="1193" width="90" height="51" as="geometry"/>
                </mxCell>
                <mxCell id="755" style="edgeStyle=none;html=1;dashed=1;endArrow=none;endFill=0;" parent="1" source="754" target="746" edge="1">
                    <mxGeometry relative="1" as="geometry"/>
                </mxCell>
                <mxCell id="754" value="勤務区分が有給/振休/欠勤/特休の時は、工数を持たない" style="rounded=0;whiteSpace=wrap;html=1;align=left;verticalAlign=top;fontSize=13;fontColor=default;" parent="1" vertex="1">
                    <mxGeometry x="940" y="1100" width="150" height="80" as="geometry"/>
                </mxCell>
                <mxCell id="756" value="(実績工数)&lt;br&gt;作業NO: 99N-1234&lt;br&gt;DET: 1&lt;br&gt;工数: 4.67" style="rounded=1;whiteSpace=wrap;html=1;verticalAlign=middle;align=center;fillColor=#60a917;strokeColor=#2D7600;fontColor=#ffffff;" parent="1" vertex="1">
                    <mxGeometry x="940" y="1010" width="140" height="70" as="geometry"/>
                </mxCell>
                <mxCell id="759" value="" style="rounded=0;whiteSpace=wrap;html=1;fontSize=16;" parent="1" vertex="1">
                    <mxGeometry x="630" y="1270" width="460" height="222" as="geometry"/>
                </mxCell>
                <mxCell id="760" style="edgeStyle=none;html=1;endArrow=none;endFill=0;" parent="1" source="762" target="767" edge="1">
                    <mxGeometry relative="1" as="geometry"/>
                </mxCell>
                <mxCell id="761" style="edgeStyle=none;html=1;endArrow=none;endFill=0;" parent="1" source="762" target="768" edge="1">
                    <mxGeometry relative="1" as="geometry"/>
                </mxCell>
                <mxCell id="762" value="(勤務)&lt;br&gt;社員NO: 9999&lt;br&gt;日付: 2023/4/4&lt;br&gt;始業時間: 8:00&lt;br&gt;勤務区分: AM有&lt;br&gt;勤務時所属: 営業部" style="rounded=1;whiteSpace=wrap;html=1;verticalAlign=middle;align=center;fillColor=#60a917;strokeColor=#2D7600;fontColor=#ffffff;" parent="1" vertex="1">
                    <mxGeometry x="770" y="1284" width="140" height="92" as="geometry"/>
                </mxCell>
                <mxCell id="763" style="edgeStyle=none;html=1;endArrow=none;endFill=0;" parent="1" source="765" target="766" edge="1">
                    <mxGeometry relative="1" as="geometry"/>
                </mxCell>
                <mxCell id="764" style="edgeStyle=none;html=1;endArrow=none;endFill=0;" parent="1" source="765" target="762" edge="1">
                    <mxGeometry relative="1" as="geometry"/>
                </mxCell>
                <mxCell id="765" value="(S社員)&lt;br&gt;社員NO: 9999&lt;br&gt;氏名: 田中　一郎&lt;br&gt;部署ID: 1" style="rounded=1;whiteSpace=wrap;html=1;verticalAlign=middle;align=center;fillColor=#60a917;strokeColor=#2D7600;fontColor=#ffffff;" parent="1" vertex="1">
                    <mxGeometry x="640" y="1282" width="110" height="62" as="geometry"/>
                </mxCell>
                <mxCell id="766" value="(S部署)&lt;br&gt;部署ID: 1&lt;br&gt;部署: 営業部" style="rounded=1;whiteSpace=wrap;html=1;verticalAlign=middle;align=center;fillColor=#60a917;strokeColor=#2D7600;fontColor=#ffffff;" parent="1" vertex="1">
                    <mxGeometry x="650" y="1363" width="90" height="51" as="geometry"/>
                </mxCell>
                <mxCell id="767" value="(実績工数)&lt;br&gt;作業NO: 99N-1234&lt;br&gt;DET:&amp;nbsp;&lt;br&gt;実績工程: NC&lt;br&gt;大分類: A&lt;br&gt;中分類: A-1&lt;br&gt;工数: 3.33&lt;br&gt;特記事項: A-1見積" style="rounded=1;whiteSpace=wrap;html=1;verticalAlign=middle;align=center;fillColor=#60a917;strokeColor=#2D7600;fontColor=#ffffff;" parent="1" vertex="1">
                    <mxGeometry x="940" y="1284" width="140" height="121" as="geometry"/>
                </mxCell>
                <mxCell id="768" value="(実績工数)&lt;br&gt;作業NO: 99N-1234&lt;br&gt;DET: 1&lt;br&gt;工数: 0.67" style="rounded=1;whiteSpace=wrap;html=1;verticalAlign=middle;align=center;fillColor=#60a917;strokeColor=#2D7600;fontColor=#ffffff;" parent="1" vertex="1">
                    <mxGeometry x="940" y="1412" width="140" height="70" as="geometry"/>
                </mxCell>
                <mxCell id="770" style="edgeStyle=none;html=1;endArrow=none;endFill=0;dashed=1;" parent="1" source="769" target="759" edge="1">
                    <mxGeometry relative="1" as="geometry"/>
                </mxCell>
                <mxCell id="769" value="勤務区分がAM有/PM有/の時は、工数が4時間" style="rounded=0;whiteSpace=wrap;html=1;align=left;verticalAlign=top;fontSize=13;fontColor=default;" parent="1" vertex="1">
                    <mxGeometry x="940" y="1510" width="150" height="50" as="geometry"/>
                </mxCell>
                <mxCell id="783" style="edgeStyle=none;html=1;dashed=1;startArrow=none;startFill=0;endArrow=none;endFill=0;" parent="1" source="773" target="782" edge="1">
                    <mxGeometry relative="1" as="geometry"/>
                </mxCell>
                <mxCell id="797" style="edgeStyle=none;html=1;endArrow=none;endFill=0;" parent="1" source="773" target="796" edge="1">
                    <mxGeometry relative="1" as="geometry"/>
                </mxCell>
                <mxCell id="798" value="0..ｎ" style="edgeLabel;html=1;align=center;verticalAlign=middle;resizable=0;points=[];" parent="797" vertex="1" connectable="0">
                    <mxGeometry x="-0.7652" relative="1" as="geometry">
                        <mxPoint x="8" y="-3" as="offset"/>
                    </mxGeometry>
                </mxCell>
                <mxCell id="799" value="１" style="edgeLabel;html=1;align=center;verticalAlign=middle;resizable=0;points=[];" parent="797" vertex="1" connectable="0">
                    <mxGeometry x="0.7169" relative="1" as="geometry">
                        <mxPoint x="-2" y="-1" as="offset"/>
                    </mxGeometry>
                </mxCell>
                <mxCell id="773" value="&lt;span style=&quot;color: rgb(255 , 255 , 255)&quot;&gt;&lt;u&gt;実績工数&lt;br&gt;&lt;/u&gt;&lt;/span&gt;(Achievement&lt;span&gt;)&lt;/span&gt;&lt;br style=&quot;color: rgb(255 , 255 , 255)&quot;&gt;作業NO&lt;br&gt;DET&lt;br&gt;実績工程&lt;br&gt;大分類&lt;br&gt;中分類&lt;br&gt;工数&lt;br&gt;特記事項" style="rounded=1;whiteSpace=wrap;html=1;verticalAlign=middle;align=center;" parent="1" vertex="1">
                    <mxGeometry x="320" y="898" width="99.38" height="142" as="geometry"/>
                </mxCell>
                <mxCell id="780" value="・有給/振休/欠勤/特休のとき工数は無し&lt;br&gt;・勤務区分がブランクのとき工数は8時間以上&lt;br&gt;・遅刻/早退のとき工数は8時間未満&lt;br&gt;&lt;div&gt;・休日出勤は土曜の出勤のケースと日曜の出勤のケースがある&lt;/div&gt;&lt;div&gt;・休出かつ日曜のときは残業にならない-&amp;gt;日曜出勤&lt;/div&gt;&lt;div&gt;・振出かつ日曜のときは残業の可能性がある&lt;/div&gt;&lt;div&gt;&lt;br&gt;&lt;/div&gt;&lt;div&gt;多重振替は考慮しない&lt;/div&gt;" style="rounded=0;whiteSpace=wrap;html=1;align=left;verticalAlign=top;fontSize=13;spacing=2;" parent="1" vertex="1">
                    <mxGeometry x="150" y="1156" width="460" height="170" as="geometry"/>
                </mxCell>
                <mxCell id="782" value="・作業NO/大分類/工数は必須項目&lt;br&gt;・DET/大分類/中分類/特記事項は全ての文字種が入る&lt;br&gt;・工数は小数点第2位までの正の実数" style="rounded=0;whiteSpace=wrap;html=1;align=left;verticalAlign=top;fontSize=13;spacing=2;" parent="1" vertex="1">
                    <mxGeometry x="294.69" y="1070" width="325.31" height="69" as="geometry"/>
                </mxCell>
                <mxCell id="784" value="&lt;u&gt;自社カレンダー集約&lt;/u&gt;" style="rounded=0;whiteSpace=wrap;html=1;verticalAlign=top;" parent="1" vertex="1">
                    <mxGeometry x="10.620000000000003" y="1400" width="161.24" height="120" as="geometry"/>
                </mxCell>
                <mxCell id="785" value="&lt;font color=&quot;#ffffff&quot;&gt;&lt;u&gt;自社カレンダー&lt;/u&gt;&lt;/font&gt;&lt;br&gt;(OwnCompanyHoliday&lt;span&gt;)&lt;/span&gt;&lt;br style=&quot;color: rgb(255 , 255 , 255)&quot;&gt;&lt;span style=&quot;color: rgb(255 , 255 , 255)&quot;&gt;日付&lt;br&gt;法定休日&lt;br&gt;&lt;/span&gt;" style="rounded=1;whiteSpace=wrap;html=1;verticalAlign=middle;align=center;" parent="1" vertex="1">
                    <mxGeometry x="25.619999999999997" y="1430" width="136.24" height="70" as="geometry"/>
                </mxCell>
                <mxCell id="792" style="edgeStyle=none;html=1;endArrow=none;endFill=0;dashed=1;" parent="1" source="786" target="787" edge="1">
                    <mxGeometry relative="1" as="geometry"/>
                </mxCell>
                <mxCell id="786" value="" style="rounded=0;whiteSpace=wrap;html=1;fontSize=16;" parent="1" vertex="1">
                    <mxGeometry x="430" y="1460" width="190" height="90" as="geometry"/>
                </mxCell>
                <mxCell id="787" value="&lt;span style=&quot;font-size: 13px&quot;&gt;法定休日&lt;br style=&quot;font-size: 13px&quot;&gt;&lt;/span&gt;" style="rounded=0;whiteSpace=wrap;html=1;align=left;verticalAlign=top;fontSize=13;spacing=2;" parent="1" vertex="1">
                    <mxGeometry x="640" y="1520" width="100" height="30" as="geometry"/>
                </mxCell>
                <mxCell id="793" style="edgeStyle=none;html=1;dashed=1;endArrow=none;endFill=0;" parent="1" source="788" target="789" edge="1">
                    <mxGeometry relative="1" as="geometry"/>
                </mxCell>
                <mxCell id="788" value="" style="rounded=0;whiteSpace=wrap;html=1;fontSize=16;" parent="1" vertex="1">
                    <mxGeometry x="430" y="1560" width="190" height="90" as="geometry"/>
                </mxCell>
                <mxCell id="789" value="&lt;span style=&quot;font-size: 13px&quot;&gt;法定外休日&lt;br style=&quot;font-size: 13px&quot;&gt;&lt;/span&gt;" style="rounded=0;whiteSpace=wrap;html=1;align=left;verticalAlign=top;fontSize=13;spacing=2;" parent="1" vertex="1">
                    <mxGeometry x="640" y="1560" width="100" height="30" as="geometry"/>
                </mxCell>
                <mxCell id="790" value="(自社カレンダー)&lt;br&gt;日付: 2023/1/1&lt;br&gt;法定休日:&amp;nbsp;LegalHoliday" style="rounded=1;whiteSpace=wrap;html=1;verticalAlign=middle;align=center;fillColor=#60a917;strokeColor=#2D7600;fontColor=#ffffff;" parent="1" vertex="1">
                    <mxGeometry x="450" y="1470" width="150" height="70" as="geometry"/>
                </mxCell>
                <mxCell id="791" value="(自社カレンダー)&lt;br&gt;日付: 2023/1/2&lt;br&gt;法定休日:&amp;nbsp;RegularHoliday" style="rounded=1;whiteSpace=wrap;html=1;verticalAlign=middle;align=center;fillColor=#60a917;strokeColor=#2D7600;fontColor=#ffffff;" parent="1" vertex="1">
                    <mxGeometry x="450" y="1570" width="150" height="70" as="geometry"/>
                </mxCell>
                <mxCell id="794" value="入力済みか確認する" style="rounded=1;whiteSpace=wrap;html=1;" parent="1" vertex="1">
                    <mxGeometry x="950" y="434" width="180" height="40" as="geometry"/>
                </mxCell>
                <mxCell id="796" value="&lt;span style=&quot;&quot;&gt;&lt;u&gt;M作業台帳&lt;/u&gt;&lt;br&gt;&lt;div style=&quot;text-align: left;&quot;&gt;&lt;span style=&quot;text-decoration-line: underline; background-color: initial;&quot;&gt;(&lt;/span&gt;&lt;span style=&quot;background-color: initial;&quot;&gt;WorkingLedger&lt;u&gt;)&lt;/u&gt;&lt;/span&gt;&lt;/div&gt;&lt;/span&gt;&lt;span style=&quot;&quot;&gt;作業NO&lt;br&gt;コード&lt;br&gt;&lt;/span&gt;" style="rounded=1;whiteSpace=wrap;html=1;verticalAlign=middle;align=center;fontColor=default;" parent="1" vertex="1">
                    <mxGeometry x="464.38" y="899.5" width="111.24" height="67" as="geometry"/>
                </mxCell>
                <mxCell id="800" value="項目分類表を取得する" style="rounded=1;whiteSpace=wrap;html=1;" vertex="1" parent="1">
                    <mxGeometry x="950" y="330" width="180" height="40" as="geometry"/>
                </mxCell>
            </root>
        </mxGraphModel>
    </diagram>
    <diagram id="GC2mZp-eliTmwVE0-EQn" name="タイミング図">
        <mxGraphModel dx="1386" dy="541" grid="1" gridSize="10" guides="1" tooltips="1" connect="1" arrows="1" fold="1" page="1" pageScale="1" pageWidth="1169" pageHeight="827" math="0" shadow="0">
            <root>
                <mxCell id="uFFxeDsAcsZEt6mVLsAy-0"/>
                <mxCell id="uFFxeDsAcsZEt6mVLsAy-1" parent="uFFxeDsAcsZEt6mVLsAy-0"/>
                <mxCell id="cWa9Pjb9JkdC5c4ndMY4-25" style="edgeStyle=orthogonalEdgeStyle;html=1;fontSize=16;fontColor=default;endArrow=classic;endFill=1;" parent="uFFxeDsAcsZEt6mVLsAy-1" source="cWa9Pjb9JkdC5c4ndMY4-1" target="cWa9Pjb9JkdC5c4ndMY4-4" edge="1">
                    <mxGeometry relative="1" as="geometry"/>
                </mxCell>
                <mxCell id="cWa9Pjb9JkdC5c4ndMY4-1" value="勤怠エクセル作成" style="shape=note2;boundedLbl=1;whiteSpace=wrap;html=1;size=25;verticalAlign=top;align=center;fontSize=16;fontColor=default;" parent="uFFxeDsAcsZEt6mVLsAy-1" vertex="1">
                    <mxGeometry x="270" y="40" width="90" height="110" as="geometry"/>
                </mxCell>
                <mxCell id="cWa9Pjb9JkdC5c4ndMY4-2" value="社員" style="text;html=1;strokeColor=none;fillColor=none;align=center;verticalAlign=middle;whiteSpace=wrap;rounded=0;fontSize=16;fontColor=default;" parent="uFFxeDsAcsZEt6mVLsAy-1" vertex="1">
                    <mxGeometry x="30" y="80" width="160" height="30" as="geometry"/>
                </mxCell>
                <mxCell id="cWa9Pjb9JkdC5c4ndMY4-3" value="今回のソフト" style="text;html=1;strokeColor=none;fillColor=none;align=center;verticalAlign=middle;whiteSpace=wrap;rounded=0;fontSize=16;fontColor=default;" parent="uFFxeDsAcsZEt6mVLsAy-1" vertex="1">
                    <mxGeometry x="40" y="280" width="160" height="30" as="geometry"/>
                </mxCell>
                <mxCell id="cWa9Pjb9JkdC5c4ndMY4-26" style="edgeStyle=orthogonalEdgeStyle;html=1;fontSize=16;fontColor=default;endArrow=classic;endFill=1;entryX=0.5;entryY=0;entryDx=0;entryDy=0;" parent="uFFxeDsAcsZEt6mVLsAy-1" source="cWa9Pjb9JkdC5c4ndMY4-4" target="cWa9Pjb9JkdC5c4ndMY4-29" edge="1">
                    <mxGeometry relative="1" as="geometry">
                        <mxPoint x="740" y="500" as="targetPoint"/>
                    </mxGeometry>
                </mxCell>
                <mxCell id="cWa9Pjb9JkdC5c4ndMY4-32" value="一致した場合" style="edgeLabel;html=1;align=center;verticalAlign=middle;resizable=0;points=[];fontSize=16;fontColor=default;" parent="cWa9Pjb9JkdC5c4ndMY4-26" vertex="1" connectable="0">
                    <mxGeometry x="-0.4705" relative="1" as="geometry">
                        <mxPoint x="-1" as="offset"/>
                    </mxGeometry>
                </mxCell>
                <mxCell id="xza8FR8Zr-br7byPEPtf-0" style="edgeStyle=orthogonalEdgeStyle;html=1;entryX=0;entryY=0.5;entryDx=0;entryDy=0;entryPerimeter=0;" parent="uFFxeDsAcsZEt6mVLsAy-1" source="cWa9Pjb9JkdC5c4ndMY4-4" target="cWa9Pjb9JkdC5c4ndMY4-6" edge="1">
                    <mxGeometry relative="1" as="geometry">
                        <Array as="points">
                            <mxPoint x="310" y="290"/>
                            <mxPoint x="310" y="525"/>
                        </Array>
                    </mxGeometry>
                </mxCell>
                <mxCell id="xza8FR8Zr-br7byPEPtf-1" value="一致しなかった場合" style="edgeLabel;html=1;align=center;verticalAlign=middle;resizable=0;points=[];fontSize=16;" parent="xza8FR8Zr-br7byPEPtf-0" vertex="1" connectable="0">
                    <mxGeometry x="-0.789" relative="1" as="geometry">
                        <mxPoint x="-43" as="offset"/>
                    </mxGeometry>
                </mxCell>
                <mxCell id="xza8FR8Zr-br7byPEPtf-2" value="タイムレコーダーかCSVを直す" style="edgeLabel;html=1;align=center;verticalAlign=middle;resizable=0;points=[];fontSize=16;" parent="xza8FR8Zr-br7byPEPtf-0" vertex="1" connectable="0">
                    <mxGeometry x="0.115" relative="1" as="geometry">
                        <mxPoint x="160" y="-44" as="offset"/>
                    </mxGeometry>
                </mxCell>
                <mxCell id="cWa9Pjb9JkdC5c4ndMY4-4" value="比較" style="rounded=1;whiteSpace=wrap;html=1;fontSize=16;fontColor=default;" parent="uFFxeDsAcsZEt6mVLsAy-1" vertex="1">
                    <mxGeometry x="590" y="260" width="120" height="60" as="geometry"/>
                </mxCell>
                <mxCell id="cWa9Pjb9JkdC5c4ndMY4-5" value="タイムレコーダーのアプリケーション" style="text;html=1;strokeColor=none;fillColor=none;align=center;verticalAlign=middle;whiteSpace=wrap;rounded=0;fontSize=16;fontColor=default;" parent="uFFxeDsAcsZEt6mVLsAy-1" vertex="1">
                    <mxGeometry x="40" y="490" width="160" height="70" as="geometry"/>
                </mxCell>
                <mxCell id="cWa9Pjb9JkdC5c4ndMY4-30" style="edgeStyle=orthogonalEdgeStyle;html=1;entryX=0;entryY=0.5;entryDx=0;entryDy=0;fontSize=16;fontColor=default;endArrow=classic;endFill=1;exitX=0;exitY=0;exitDx=90;exitDy=67.5;exitPerimeter=0;" parent="uFFxeDsAcsZEt6mVLsAy-1" source="cWa9Pjb9JkdC5c4ndMY4-6" target="cWa9Pjb9JkdC5c4ndMY4-29" edge="1">
                    <mxGeometry relative="1" as="geometry"/>
                </mxCell>
                <mxCell id="cWa9Pjb9JkdC5c4ndMY4-6" value="CSV作成" style="shape=note2;boundedLbl=1;whiteSpace=wrap;html=1;size=25;verticalAlign=top;align=center;fontSize=16;fontColor=default;" parent="uFFxeDsAcsZEt6mVLsAy-1" vertex="1">
                    <mxGeometry x="430" y="470" width="90" height="110" as="geometry"/>
                </mxCell>
                <mxCell id="cWa9Pjb9JkdC5c4ndMY4-9" value="給与のシステム" style="text;html=1;strokeColor=none;fillColor=none;align=center;verticalAlign=middle;whiteSpace=wrap;rounded=0;fontSize=16;fontColor=default;" parent="uFFxeDsAcsZEt6mVLsAy-1" vertex="1">
                    <mxGeometry x="40" y="710" width="160" height="70" as="geometry"/>
                </mxCell>
                <mxCell id="cWa9Pjb9JkdC5c4ndMY4-10" value="取込" style="rounded=1;whiteSpace=wrap;html=1;fontSize=16;fontColor=default;" parent="uFFxeDsAcsZEt6mVLsAy-1" vertex="1">
                    <mxGeometry x="810" y="715" width="120" height="60" as="geometry"/>
                </mxCell>
                <mxCell id="cWa9Pjb9JkdC5c4ndMY4-12" value="" style="endArrow=none;html=1;fontSize=16;fontColor=default;" parent="uFFxeDsAcsZEt6mVLsAy-1" edge="1">
                    <mxGeometry width="50" height="50" relative="1" as="geometry">
                        <mxPoint x="20" y="210" as="sourcePoint"/>
                        <mxPoint x="1140" y="210" as="targetPoint"/>
                    </mxGeometry>
                </mxCell>
                <mxCell id="cWa9Pjb9JkdC5c4ndMY4-13" value="" style="endArrow=none;html=1;fontSize=16;fontColor=default;" parent="uFFxeDsAcsZEt6mVLsAy-1" edge="1">
                    <mxGeometry width="50" height="50" relative="1" as="geometry">
                        <mxPoint x="20" y="400" as="sourcePoint"/>
                        <mxPoint x="1140" y="400" as="targetPoint"/>
                    </mxGeometry>
                </mxCell>
                <mxCell id="cWa9Pjb9JkdC5c4ndMY4-14" value="" style="endArrow=none;html=1;fontSize=16;fontColor=default;" parent="uFFxeDsAcsZEt6mVLsAy-1" edge="1">
                    <mxGeometry width="50" height="50" relative="1" as="geometry">
                        <mxPoint x="20" y="650" as="sourcePoint"/>
                        <mxPoint x="1140" y="650" as="targetPoint"/>
                    </mxGeometry>
                </mxCell>
                <mxCell id="cWa9Pjb9JkdC5c4ndMY4-17" value="" style="endArrow=none;dashed=1;html=1;dashPattern=1 3;strokeWidth=2;fontSize=16;fontColor=default;" parent="uFFxeDsAcsZEt6mVLsAy-1" edge="1">
                    <mxGeometry width="50" height="50" relative="1" as="geometry">
                        <mxPoint x="220" y="810" as="sourcePoint"/>
                        <mxPoint x="220" y="10.000000000000114" as="targetPoint"/>
                    </mxGeometry>
                </mxCell>
                <mxCell id="cWa9Pjb9JkdC5c4ndMY4-18" value="" style="endArrow=none;dashed=1;html=1;dashPattern=1 3;strokeWidth=2;fontSize=16;fontColor=default;" parent="uFFxeDsAcsZEt6mVLsAy-1" edge="1">
                    <mxGeometry width="50" height="50" relative="1" as="geometry">
                        <mxPoint x="390" y="810" as="sourcePoint"/>
                        <mxPoint x="390" y="10.000000000000114" as="targetPoint"/>
                    </mxGeometry>
                </mxCell>
                <mxCell id="cWa9Pjb9JkdC5c4ndMY4-19" value="" style="endArrow=none;dashed=1;html=1;dashPattern=1 3;strokeWidth=2;fontSize=16;fontColor=default;" parent="uFFxeDsAcsZEt6mVLsAy-1" edge="1">
                    <mxGeometry width="50" height="50" relative="1" as="geometry">
                        <mxPoint x="560" y="810" as="sourcePoint"/>
                        <mxPoint x="560" y="10.000000000000114" as="targetPoint"/>
                    </mxGeometry>
                </mxCell>
                <mxCell id="cWa9Pjb9JkdC5c4ndMY4-7" style="edgeStyle=orthogonalEdgeStyle;html=1;fontSize=16;fontColor=default;endArrow=classic;endFill=1;" parent="uFFxeDsAcsZEt6mVLsAy-1" source="cWa9Pjb9JkdC5c4ndMY4-6" target="cWa9Pjb9JkdC5c4ndMY4-4" edge="1">
                    <mxGeometry relative="1" as="geometry"/>
                </mxCell>
                <mxCell id="cWa9Pjb9JkdC5c4ndMY4-28" value="" style="endArrow=none;dashed=1;html=1;dashPattern=1 3;strokeWidth=2;fontSize=16;fontColor=default;" parent="uFFxeDsAcsZEt6mVLsAy-1" edge="1">
                    <mxGeometry width="50" height="50" relative="1" as="geometry">
                        <mxPoint x="750" y="800" as="sourcePoint"/>
                        <mxPoint x="750" y="1.1368683772161603e-13" as="targetPoint"/>
                    </mxGeometry>
                </mxCell>
                <mxCell id="cWa9Pjb9JkdC5c4ndMY4-31" style="edgeStyle=orthogonalEdgeStyle;html=1;fontSize=16;fontColor=default;endArrow=classic;endFill=1;" parent="uFFxeDsAcsZEt6mVLsAy-1" source="cWa9Pjb9JkdC5c4ndMY4-29" target="cWa9Pjb9JkdC5c4ndMY4-10" edge="1">
                    <mxGeometry relative="1" as="geometry"/>
                </mxCell>
                <mxCell id="cWa9Pjb9JkdC5c4ndMY4-29" value="" style="rhombus;whiteSpace=wrap;html=1;fontSize=16;fontColor=default;" parent="uFFxeDsAcsZEt6mVLsAy-1" vertex="1">
                    <mxGeometry x="830" y="520" width="80" height="80" as="geometry"/>
                </mxCell>
                <mxCell id="cWa9Pjb9JkdC5c4ndMY4-33" value="2022/11/16時点のフロー" style="text;html=1;strokeColor=none;fillColor=none;align=center;verticalAlign=middle;whiteSpace=wrap;rounded=0;fontSize=16;fontColor=default;" parent="uFFxeDsAcsZEt6mVLsAy-1" vertex="1">
                    <mxGeometry x="860" y="20" width="250" height="30" as="geometry"/>
                </mxCell>
            </root>
        </mxGraphModel>
    </diagram>
</mxfile>
